<?xml version="1.0" encoding="UTF-8" standalone="no"?>
<!DOCTYPE svg PUBLIC "-//W3C//DTD SVG 1.1//EN" "http://www.w3.org/Graphics/SVG/1.1/DTD/svg11.dtd">
<svg width="100%" height="100%" viewBox="0 0 148 90" version="1.1" xmlns="http://www.w3.org/2000/svg" xmlns:xlink="http://www.w3.org/1999/xlink" xml:space="preserve" xmlns:serif="http://www.serif.com/" style="fill-rule:evenodd;clip-rule:evenodd;stroke-linejoin:round;stroke-miterlimit:2;">
    <g transform="matrix(0.95691,0,0,0.95691,3.20063,2.0802)">
        <path d="M34.992,23.495L62.847,23.495L62.847,25.714L37.546,25.714L37.546,42.413L61.338,42.413L61.338,44.632L37.546,44.632L37.546,62.966L63.137,62.966L63.137,65.185L34.992,65.185L34.992,23.495ZM65.342,23.495L68.302,23.495L81.417,41.829L94.822,23.495L113.055,0.207L83.1,43.756L98.536,65.185L95.46,65.185L81.417,45.683L67.316,65.185L64.298,65.185L79.85,43.756L65.343,23.495L65.342,23.495ZM99.639,25.714L99.639,23.495L131.381,23.495L131.381,25.714L116.758,25.714L116.758,65.184L114.204,65.184L114.204,25.714L99.639,25.714ZM0.145,23.495L3.337,23.495L47.348,89.498L29.16,65.185L2.814,26.648L2.698,65.185L0.145,65.185L0.145,23.495ZM131.125,62.296C130.602,62.296 130.211,61.891 130.211,61.368C130.211,60.844 130.602,60.439 131.124,60.439C131.652,60.439 132.037,60.844 132.037,61.368C132.037,61.891 131.652,62.296 131.124,62.296L131.125,62.296ZM133.633,59.853L135,59.853C135.019,60.595 135.56,61.093 136.354,61.093C137.242,61.093 137.745,60.558 137.745,59.554L137.745,53.198L139.136,53.198L139.136,59.56C139.136,61.368 138.093,62.409 136.366,62.409C134.746,62.409 133.634,61.399 133.634,59.853L133.633,59.853ZM140.955,59.773L142.334,59.773C142.452,60.626 143.284,61.168 144.483,61.168C145.6,61.168 146.42,60.588 146.42,59.791C146.42,59.106 145.899,58.694 144.712,58.414L143.557,58.134C141.937,57.754 141.197,56.968 141.197,55.647C141.197,54.045 142.501,52.979 144.457,52.979C146.277,52.979 147.607,54.045 147.687,55.559L146.333,55.559C146.203,54.731 145.483,54.213 144.439,54.213C143.339,54.213 142.607,54.743 142.607,55.553C142.607,56.195 143.079,56.563 144.247,56.837L145.234,57.08C147.072,57.51 147.83,58.258 147.83,59.61C147.83,61.33 146.5,62.409 144.377,62.409C142.39,62.409 141.054,61.38 140.955,59.772L140.955,59.773Z" style="fill-rule:nonzero;"/>
    </g>
</svg>
