<?xml version="1.0" encoding="UTF-8" standalone="no"?>
<!DOCTYPE svg PUBLIC "-//W3C//DTD SVG 1.1//EN" "http://www.w3.org/Graphics/SVG/1.1/DTD/svg11.dtd">
<svg width="100%" height="100%" viewBox="0 0 3300 963" version="1.1" xmlns="http://www.w3.org/2000/svg" xmlns:xlink="http://www.w3.org/1999/xlink" xml:space="preserve" xmlns:serif="http://www.serif.com/" style="fill-rule:evenodd;clip-rule:evenodd;stroke-linejoin:round;stroke-miterlimit:2;">
    <g transform="matrix(4.16667,0,0,4.16667,0,0)">
        <path d="M282.017,149.042C285.068,142.212 291.462,137.562 299.892,137.562C308.322,137.562 314.571,141.485 317.187,149.042L282.017,149.042ZM337.242,157.762C337.242,136.834 321.981,120.122 299.747,120.122C278.819,120.122 261.961,136.979 261.961,157.908C261.961,178.835 277.658,195.693 300.329,195.693C316.03,195.693 327.323,188.119 333.677,177.262L317.885,167.845C314.535,174.273 308.104,178.254 300.474,178.254C290.01,178.254 283.471,173.021 281.145,165.028L337.242,165.028L337.242,157.762ZM742.58,157.762C742.58,147.008 734.732,138.288 723.979,138.288C712.934,138.288 704.504,146.572 704.504,157.762C704.504,168.952 712.934,177.382 723.979,177.382C734.732,177.382 742.58,168.517 742.58,157.762ZM685.03,157.908C685.03,132.186 703.923,120.122 720.345,120.122C729.791,120.122 737.203,123.61 741.999,128.696L741.999,88.151L761.909,88.151L761.909,194.239L741.999,194.239L741.999,186.102C737.203,191.77 729.501,195.693 720.055,195.693C704.649,195.693 685.03,183.485 685.03,157.908ZM670.404,110.516C676.982,110.516 682.314,105.184 682.314,98.607C682.314,92.029 676.982,86.697 670.404,86.697C663.827,86.697 658.496,92.029 658.496,98.607C658.496,105.184 663.827,110.516 670.404,110.516ZM660.45,121.576L680.359,121.576L680.359,194.239L660.45,194.239L660.45,140.905L653.224,140.904L660.45,121.576ZM607.411,121.576L627.176,121.576L627.176,133.493C630.809,125.936 637.349,121.576 647.231,121.576L655.225,121.576L648.006,140.904L642.58,140.904C631.972,140.904 627.321,146.427 627.321,159.942L627.321,194.239L607.411,194.239L607.411,121.576ZM495.404,141.195C495.404,110.966 518.221,86.697 549.611,86.697C565.313,86.697 578.517,92.351 588.077,101.36C591.968,105.026 595.254,109.249 597.86,113.873L580.131,124.627C573.591,112.564 563.563,106.315 549.757,106.315C530.428,106.315 515.459,122.157 515.459,141.195C515.459,160.669 530.138,176.073 550.483,176.073C565.889,176.073 576.787,167.354 580.566,153.838L547.286,153.838L547.286,134.51L602.365,134.51L602.365,142.648C602.365,171.133 582.02,195.693 550.483,195.693C517.349,195.693 495.404,170.552 495.404,141.195ZM471.404,157.762C471.404,147.008 463.557,138.288 452.803,138.288C441.758,138.288 433.328,146.572 433.328,157.762C433.328,168.952 441.758,177.382 452.803,177.382C463.557,177.382 471.404,168.517 471.404,157.762ZM413.854,157.908C413.854,132.186 432.746,120.122 449.169,120.122C458.615,120.122 466.027,123.61 470.823,128.696L470.823,88.151L490.733,88.151L490.733,194.239L470.823,194.239L470.823,186.102C466.027,191.77 458.325,195.693 448.879,195.693C433.474,195.693 413.854,183.485 413.854,157.908ZM341.896,121.576L361.662,121.576L361.662,129.714C366.312,123.755 373.434,120.122 381.717,120.122C398.865,120.122 409.184,131.167 409.184,149.914L409.184,194.239L388.983,194.239L388.983,152.53C388.983,142.793 384.478,137.125 375.614,137.125C368.056,137.125 361.807,142.357 361.807,154.564L361.807,194.239L341.896,194.239L341.896,121.576ZM179.333,176.655L197.791,162.121C203.022,171.133 211.306,176.364 220.751,176.364C231.071,176.364 236.594,169.68 236.594,162.412C236.594,153.693 225.983,150.933 214.648,147.443C200.407,143.084 184.565,137.562 184.565,117.215C184.565,100.213 199.39,86.697 219.88,86.697C237.175,86.697 247.057,93.237 255.632,102.102L238.918,114.745C234.559,108.206 228.31,104.717 220.025,104.717C210.579,104.717 205.494,109.804 205.494,116.489C205.494,124.627 215.666,127.39 227.001,131.167C241.39,135.817 257.665,142.212 257.665,162.559C257.665,179.416 244.295,195.693 220.897,195.693C201.715,195.693 188.926,187.556 179.333,176.655Z" style="fill:rgb(36,55,70);fill-rule:nonzero;"/>
        <rect x="70.647" y="151.805" width="42.434" height="42.434" style="fill:rgb(157,219,240);fill-rule:nonzero;"/>
        <rect x="28.213" y="109.372" width="42.434" height="42.435" style="fill:rgb(157,219,240);fill-rule:nonzero;"/>
        <rect x="28.213" y="151.805" width="42.434" height="42.434" style="fill:rgb(56,125,193);fill-rule:nonzero;"/>
        <rect x="113.081" y="109.372" width="42.434" height="42.435" style="fill:rgb(0,179,228);fill-rule:nonzero;"/>
        <rect x="70.647" y="66.939" width="42.434" height="42.434" style="fill:rgb(0,179,228);fill-rule:nonzero;"/>
        <rect x="70.647" y="109.372" width="42.434" height="42.434" style="fill:rgb(16,156,217);fill-rule:nonzero;"/>
        <rect x="113.081" y="66.939" width="42.434" height="42.434" style="fill:rgb(56,125,193);fill-rule:nonzero;"/>
        <path d="M199.351,41.303L199.351,66.041L193.628,66.041L193.628,41.303L184.809,41.303L184.809,36.354L208.199,36.354L208.19,41.303L199.351,41.303Z" style="fill:rgb(36,55,70);fill-rule:nonzero;"/>
        <path d="M249.913,66.041L244.492,66.041L237.909,44.443L231.327,66.041L225.949,66.041L217.652,36.216L223.658,36.298L229.175,57.308L235.371,36.354L241.093,36.354L247.289,57.308L252.71,36.354L258.432,36.354L249.913,66.041Z" style="fill:rgb(36,55,70);fill-rule:nonzero;"/>
        <rect x="269.72" y="36.354" width="5.722" height="29.687" style="fill:rgb(36,55,70);fill-rule:nonzero;"/>
        <path d="M288.699,66.041L288.699,36.354L294.422,36.354L294.422,61.008L304.317,61.008L304.367,66.041L288.699,66.041Z" style="fill:rgb(36,55,70);fill-rule:nonzero;"/>
        <rect x="316.244" y="36.354" width="5.722" height="29.687" style="fill:rgb(36,55,70);fill-rule:nonzero;"/>
        <path d="M348,40.529C342.923,40.529 339.869,44.703 339.869,51.2C339.869,57.696 342.923,61.869 348,61.869C353.12,61.869 356.175,57.696 356.175,51.2C356.175,44.703 353.078,40.529 348,40.529ZM347.958,66.602C339.524,66.602 334.062,60.405 334.062,51.241C334.062,42.034 339.567,35.796 348.043,35.796C356.563,35.796 361.939,41.99 361.939,51.155C361.939,60.318 356.477,66.602 347.958,66.602Z" style="fill:rgb(36,55,70);fill-rule:nonzero;"/>
    </g>
</svg>
